<svg width="100" height="100" viewBox="0 0 100 100" fill="none" xmlns="http://www.w3.org/2000/svg">
<path d="M74.7938 0.000891003C71.4861 -0.0343803 68.8821 0.977081 67.8965 3.11617C63.0718 13.593 57.5721 21.5206 51.1433 27.8863C51.7887 28.1007 52.4239 28.37 53.0365 28.6853C55.7873 30.1021 58.3886 32.4405 60.5161 35.1995C62.6435 37.9583 64.297 41.1373 64.9176 44.3869C65.0756 45.2123 65.1633 46.0523 65.1628 46.8882C73.4173 41.7433 83.1794 38.1817 95.0022 36.0509C98.1604 35.4813 100.012 30.0036 99.5361 23.6624L92.0896 23.4512L98.5626 18.2106C97.684 15.1466 96.2299 12.1376 94.0817 9.6103C90.7926 5.74229 86.3653 2.98353 82.0676 1.43962L76.5682 4.73315L77.1638 0.192243C76.3431 0.0760801 75.5517 0.0087056 74.7938 0.000891003ZM47.9728 31.2922C47.7477 31.3032 47.5365 31.3399 47.3374 31.3915C44.8007 33.5572 42.1246 35.5305 39.3016 37.3644C39.4799 37.4341 39.6553 37.5052 39.8311 37.5823C42.8226 38.8901 45.6429 41.2034 47.9796 44.0505C50.8086 47.4978 52.9827 51.8524 53.4071 56.2476C55.596 54.058 57.9061 52.0355 60.364 50.1818C61.2316 48.7973 61.4082 47.1261 61.0259 45.1259C60.5633 42.7055 59.1954 39.9662 57.3721 37.6018C55.5484 35.2375 53.2671 33.2463 51.2161 32.1896C49.9342 31.5294 48.8538 31.25 47.9728 31.2922ZM34.86 40.4336C34.5667 40.4448 34.2902 40.4906 34.0195 40.5523C26.1824 44.9373 17.2675 48.5749 7.053 52.3798C7.17458 52.3887 7.29447 52.3994 7.41732 52.4127C9.66827 52.6569 11.8815 53.4704 14.0164 54.7096L21.9991 51.238L18.6496 58.1486C19.9195 59.2959 21.1497 60.5726 22.3234 61.9503C26.7206 67.1109 30.3647 73.7493 32.2985 80.5558C32.9298 82.7752 33.3809 84.9801 33.6355 87.1099C38.0815 76.8796 43.0359 68.2578 48.959 61.1317C50.5053 56.595 48.496 50.9077 44.9212 46.5522C42.9217 44.1153 40.4782 42.1765 38.2427 41.1992C36.9854 40.6492 35.8555 40.3951 34.86 40.4336ZM64.8585 52.0169C63.3101 53.0835 61.7952 54.2367 60.3178 55.4621C68.6125 57.4179 73.2285 63.0068 77.4017 68.5898C79.6181 71.5551 81.7647 74.5267 84.4181 77.1833C89.5419 79.1152 93.5621 78.5308 97.9543 74.0283C78.4324 68.161 77.597 54.469 64.8585 52.0169ZM5.96067 56.2871C3.65761 56.3346 2.09294 57.5026 1.01607 59.7918C-0.21457 62.408 -0.490776 66.6496 1.10885 71.8438C2.32678 75.7997 4.60803 79.8101 7.19852 82.7473C9.78901 85.6843 12.6845 87.4098 14.6912 87.4795C15.4786 87.507 16.086 87.3355 16.5645 86.8987L16.5249 86.859L16.9683 86.4168C17.1362 86.1701 17.2902 85.8786 17.4315 85.5324C18.0267 84.0751 18.1262 81.6142 17.0409 78.5627C15.5826 74.4617 12.991 71.8185 9.97159 71.217L5.10664 70.253L9.30332 67.613L17.4518 62.5047C13.9251 58.9519 10.1336 56.674 6.99327 56.3333C6.63318 56.2945 6.28962 56.2803 5.96067 56.2871ZM56.0019 57.4289L50.8061 62.7882C72.0811 66.5641 62.5512 92.5692 84.5502 100L79.3015 87.9022C86.2418 91.3131 93.5757 92.6803 100 90.443C71.2419 81.5833 79.598 63.6235 56.0019 57.4289ZM20.1057 65.5011L14.6052 68.9528C17.397 70.7481 19.5215 73.7187 20.7743 77.2426C21.3187 78.7726 21.6498 80.2428 21.7805 81.6315L26.7454 76.6948C25.0339 72.6417 22.7131 68.7609 20.1057 65.5011ZM28.2342 80.7869L19.3247 89.6575L19.2916 89.6245C18.3904 90.4571 17.2887 91.0533 16.075 91.3011C21.0035 94.4423 25.5313 95.3871 28.1086 93.3206C29.011 92.597 29.6005 91.555 29.9027 90.278C29.8159 87.5991 29.3516 84.6568 28.4927 81.6385C28.4117 81.3542 28.3219 81.0712 28.2342 80.7869Z" fill="white"/>
</svg>
