<svg width="101" height="101" viewBox="0 0 101 101" fill="none" xmlns="http://www.w3.org/2000/svg">
<path d="M92.0192 24.1896C91.9421 24.2548 91.869 24.3165 91.8016 24.3728C91.1004 25.0897 89.9571 25.3665 88.941 25.0658C88.4208 24.9392 87.7935 24.7912 87.2701 24.7127C87.0078 24.6733 86.7756 24.6521 86.5979 24.6587C86.509 24.662 86.4371 24.6722 86.3833 24.6888C86.3294 24.7055 86.3 24.7265 86.2853 24.7477C86.2701 24.7697 86.2628 24.8024 86.2716 24.8513C86.2804 24.9003 86.3046 24.9602 86.3445 25.0303C86.4244 25.1702 86.5602 25.3388 86.7305 25.5221C87.0703 25.8876 87.5363 26.3003 87.9335 26.6434C88.7421 27.2695 89.0584 28.2876 88.7249 29.1913C88.7048 29.2719 88.6827 29.3593 88.6593 29.4517C88.5653 29.8228 88.4512 30.2728 88.3764 30.671C88.3296 30.9206 88.299 31.1464 88.2978 31.318C88.2973 31.404 88.3042 31.473 88.3185 31.5231C88.3333 31.5755 88.3525 31.5946 88.364 31.6003C88.3754 31.6062 88.4035 31.6111 88.4616 31.5958C88.5172 31.5812 88.5872 31.5513 88.67 31.5069C88.8348 31.4186 89.037 31.2798 89.2538 31.1166C89.5997 30.8562 89.9754 30.539 90.2852 30.2776C90.3624 30.2126 90.4354 30.1509 90.5029 30.0944C91.2038 29.3779 92.346 29.1011 93.3619 29.4011C93.4526 29.4192 93.5509 29.4393 93.6549 29.4605C94.0722 29.5456 94.5783 29.6489 95.0262 29.7168C95.3068 29.7594 95.5608 29.7877 95.7537 29.7893C95.8504 29.7901 95.9278 29.7842 95.9842 29.7718C96.0431 29.7587 96.0642 29.7417 96.0705 29.7318C96.0767 29.722 96.0823 29.6972 96.0649 29.6453C96.0482 29.5958 96.0144 29.5334 95.9642 29.4596C95.8642 29.3125 95.7074 29.132 95.5231 28.9385C95.2292 28.6297 94.8713 28.294 94.5763 28.0173C94.5029 27.9485 94.4334 27.8832 94.3696 27.8229C93.562 27.1967 93.2462 26.1792 93.5796 25.2759C93.5997 25.1954 93.6218 25.1079 93.6452 25.0155C93.7392 24.6446 93.8533 24.1946 93.928 23.7964C93.9748 23.5468 94.0055 23.3208 94.0066 23.1493C94.0072 23.0633 94.0002 22.9944 93.9859 22.9441C93.9711 22.8918 93.952 22.8728 93.9404 22.8669C93.929 22.8612 93.9009 22.8562 93.8429 22.8715C93.7872 22.8861 93.7172 22.916 93.6345 22.9603C93.4696 23.0487 93.2675 23.1875 93.0507 23.3507C92.7048 23.6111 92.3291 23.9282 92.0192 24.1896Z" fill="white" stroke="#D4D4D4"/>
<path d="M94.7094 38.5801C94.6092 38.6646 94.5144 38.7447 94.4269 38.8179C93.5228 39.7427 92.0481 40.0998 90.7375 39.7117C90.0631 39.5477 89.2489 39.3556 88.5695 39.2536C88.229 39.2026 87.9265 39.1747 87.6941 39.1834C87.5779 39.1877 87.4829 39.201 87.4109 39.2233C87.3387 39.2456 87.2961 39.2747 87.2741 39.3066C87.2513 39.3396 87.242 39.3863 87.2538 39.452C87.2656 39.518 87.2979 39.5973 87.3501 39.689C87.4545 39.8721 87.6316 40.0916 87.8527 40.3296C88.2938 40.8041 88.8988 41.3399 89.4138 41.7846C90.4567 42.5921 90.8647 43.9054 90.4341 45.0708C90.4082 45.1753 90.3794 45.2889 90.349 45.4088C90.2272 45.8898 90.0791 46.4737 89.9822 46.9905C89.9214 47.3141 89.8815 47.608 89.88 47.8317C89.8793 47.9439 89.8883 48.0348 89.9074 48.1018C89.927 48.1709 89.9535 48.2011 89.9751 48.2121C89.9966 48.223 90.0392 48.2279 90.1159 48.2077C90.1903 48.1882 90.2826 48.1486 90.3903 48.0908C90.6054 47.9757 90.8684 47.7951 91.1495 47.5833C91.5983 47.2455 92.0858 46.834 92.4874 46.4951C92.5877 46.4105 92.6825 46.3306 92.7701 46.2572C93.6737 45.3328 95.1475 44.9756 96.4579 45.363C96.5753 45.3865 96.7031 45.4125 96.838 45.4401C97.3791 45.5504 98.0358 45.6844 98.6168 45.7727C98.9808 45.8278 99.3113 45.8646 99.5627 45.8667C99.6889 45.8678 99.7911 45.8601 99.8662 45.8435C99.944 45.8262 99.9776 45.8027 99.9896 45.784C100.002 45.7651 100.007 45.7274 99.9841 45.6589C99.9618 45.5927 99.917 45.5104 99.8517 45.4144C99.7213 45.2225 99.5173 44.9877 99.2783 44.7368C98.8968 44.336 98.4325 43.9005 98.0502 43.5418C97.9548 43.4524 97.8644 43.3677 97.7818 43.2894C96.7398 42.4821 96.3324 41.1693 96.7627 40.0044C96.7887 39.8999 96.8174 39.7863 96.8479 39.6663C96.9698 39.1854 97.1179 38.6014 97.2147 38.0848C97.2754 37.761 97.3153 37.4672 97.3168 37.2435C97.3175 37.1314 97.3085 37.0403 97.2896 36.9734C97.2699 36.9042 97.2433 36.874 97.2218 36.863C97.2004 36.8521 97.1576 36.8472 97.0809 36.8674C97.0066 36.887 96.9143 36.9265 96.8065 36.9843C96.5916 37.0996 96.3286 37.2802 96.0474 37.4918C95.5986 37.8298 95.111 38.2412 94.7094 38.5801Z" fill="white" stroke="#D4D4D4"/>
<path d="M59.7108 5.89418C59.6147 5.84074 59.5239 5.79011 59.4404 5.74325C58.4177 5.28406 57.8193 4.34477 57.9426 3.39282C57.9729 2.91142 58.0038 2.33182 57.9757 1.85804C57.9616 1.6205 57.9329 1.41312 57.8836 1.25928C57.8588 1.18231 57.8299 1.12178 57.7975 1.07838C57.7649 1.03483 57.7329 1.01358 57.704 1.00533C57.674 0.99679 57.6332 0.997376 57.5767 1.01548C57.52 1.03366 57.4539 1.06758 57.3793 1.11745C57.2301 1.21712 57.0599 1.3718 56.8799 1.55979C56.5212 1.93462 56.1353 2.42989 55.817 2.85029C55.2554 3.69035 54.1091 4.18433 52.9485 4.08622C52.8472 4.08596 52.7372 4.0853 52.6211 4.0846C52.1545 4.0818 51.5886 4.07839 51.0939 4.09831C50.784 4.11079 50.5063 4.13232 50.3003 4.16801C50.1972 4.18591 50.1162 4.20671 50.0594 4.2299C50.0001 4.25407 49.9817 4.27485 49.9775 4.28609C49.9731 4.29734 49.9737 4.32299 50.0057 4.37041C50.0361 4.41588 50.0882 4.47067 50.1607 4.53339C50.3051 4.65849 50.5186 4.80542 50.7647 4.95983C51.1576 5.20626 51.6253 5.46667 52.0108 5.68136C52.1068 5.73481 52.1978 5.78543 52.2811 5.83229C53.3033 6.29124 53.9016 7.22981 53.7791 8.18126C53.7786 8.26427 53.7775 8.3545 53.7763 8.44977C53.7718 8.83246 53.7661 9.29663 53.7892 9.7024C53.8036 9.95655 53.8292 10.1844 53.8721 10.3533C53.8936 10.4379 53.9189 10.5044 53.947 10.5509C53.9763 10.5995 54.0016 10.6143 54.0149 10.6176C54.0281 10.6211 54.0592 10.6207 54.1172 10.5943C54.1728 10.5692 54.2397 10.5262 54.3163 10.4666C54.4693 10.3479 54.649 10.1723 54.8378 9.97006C55.1393 9.64718 55.4581 9.26284 55.7207 8.94608C55.7861 8.86715 55.848 8.79255 55.9055 8.72394C56.4674 7.88468 57.613 7.39126 58.7732 7.48932C58.8743 7.48958 58.9843 7.49024 59.1006 7.49093C59.5671 7.49375 60.1329 7.49714 60.6276 7.47722C60.9375 7.46474 61.2154 7.44322 61.4212 7.40753C61.5244 7.38963 61.6055 7.36883 61.6623 7.34565C61.7214 7.32147 61.7399 7.30068 61.7441 7.28944C61.7484 7.27819 61.7478 7.25256 61.716 7.20513C61.6854 7.15966 61.6333 7.10488 61.5609 7.04214C61.4164 6.91705 61.2029 6.77011 60.9568 6.6157C60.5641 6.36928 60.0963 6.10887 59.7108 5.89418Z" fill="white" stroke="#D4D4D4"/>
<path d="M44.6565 11.5872C44.5446 11.5192 44.4387 11.4549 44.3415 11.3953C43.1574 10.8157 42.4642 9.62927 42.6072 8.4269C42.6423 7.81582 42.6783 7.0791 42.6458 6.47666C42.6294 6.17477 42.596 5.9102 42.538 5.71327C42.509 5.61475 42.4747 5.53628 42.4358 5.47931C42.3966 5.42221 42.3563 5.39191 42.3174 5.37976C42.2772 5.3672 42.2249 5.369 42.1567 5.39285C42.0883 5.41677 42.0096 5.46095 41.922 5.52482C41.747 5.65247 41.5478 5.84994 41.3382 6.08886C40.9201 6.56554 40.4705 7.19511 40.1001 7.72878C39.4499 8.78991 38.1226 9.41379 36.7789 9.2896C36.6611 9.28921 36.5328 9.28844 36.3975 9.28753C35.8546 9.28404 35.1953 9.27963 34.6193 9.30501C34.2585 9.32081 33.934 9.34813 33.693 9.39372C33.5723 9.41664 33.4763 9.44331 33.4081 9.47361C33.3378 9.50495 33.311 9.53396 33.3037 9.55468C33.2964 9.5754 33.3001 9.61282 33.3378 9.67433C33.3744 9.73377 33.4363 9.80447 33.521 9.8845C33.6901 10.0443 33.9395 10.2314 34.2261 10.4276C34.6836 10.7407 35.2283 11.0716 35.677 11.3442C35.7888 11.4121 35.8949 11.4764 35.9919 11.5359C37.1757 12.1154 37.8686 13.3011 37.7265 14.5029C37.7258 14.6085 37.7245 14.7232 37.7232 14.8444C37.7178 15.3301 37.7113 15.92 37.7381 16.4355C37.7548 16.7583 37.7846 17.0487 37.835 17.2641C37.8603 17.3723 37.8899 17.4581 37.9236 17.5189C37.9585 17.5818 37.9907 17.6056 38.0134 17.612C38.0362 17.6183 38.0779 17.6151 38.1467 17.581C38.2133 17.5481 38.2924 17.4926 38.3822 17.4166C38.5611 17.2649 38.771 17.0413 38.9909 16.7842C39.342 16.3741 39.7133 15.8858 40.0189 15.4836C40.0953 15.3832 40.1675 15.2883 40.2342 15.2013C40.8846 14.1409 42.2114 13.5176 43.5545 13.6418C43.6725 13.642 43.8006 13.643 43.9359 13.6437C44.4789 13.6474 45.1381 13.6516 45.7141 13.6264C46.0751 13.6105 46.3996 13.5831 46.6406 13.5375C46.7613 13.5148 46.8573 13.4879 46.9253 13.4576C46.9956 13.4263 47.0226 13.3973 47.0298 13.3767C47.0371 13.356 47.0335 13.3184 46.9956 13.2571C46.959 13.1976 46.8971 13.1269 46.8124 13.0468C46.6433 12.8871 46.3941 12.7 46.1075 12.5038C45.6499 12.1907 45.1051 11.8598 44.6565 11.5872Z" fill="white" stroke="#D4D4D4"/>
<path d="M65.4509 13.6281C67.2834 14.2794 68.4968 15.9372 68.2244 17.3384C68.1501 17.7134 63.247 24.9564 57.3534 33.4428C51.4103 42.0081 46.6062 49.1525 46.5567 49.5077C46.4824 49.9814 46.5567 50.1393 46.9529 50.238C47.572 50.3958 48.0425 50.238 48.4139 49.784C48.5625 49.5867 53.0694 43.3896 58.3934 36.0282C63.7175 28.647 68.3234 22.3513 68.5958 22.0158C71.0721 19.1147 76.7181 20.5159 76.7181 24.0289C76.7181 24.8775 75.8018 26.259 65.7233 40.8635C59.6811 49.6064 54.679 56.9481 54.5799 57.1849C54.5057 57.402 54.5799 57.7375 54.7533 57.9349C55.1743 58.3888 56.14 58.2507 56.5857 57.6783C56.7591 57.4612 60.2011 52.7247 64.2375 47.1592C68.2739 41.5937 71.8398 36.7387 72.1864 36.3834C73.2265 35.2782 75.0094 34.7848 76.6933 35.1598C78.8229 35.6138 80.383 37.39 80.0858 39.0083C79.863 40.1135 55.0752 74.3156 52.9208 76.5063C50.8902 78.5193 48.4635 79.9995 44.4271 81.6573C41.406 82.9006 41.0098 83.1375 38.6078 85.0716L36.0324 87.1636L35.141 86.2755C34.6705 85.7821 33.1104 84.4795 31.7237 83.3743C27.8606 80.3153 22.388 77.5917 16.1725 75.6182C13.0771 74.6314 12.5819 74.4143 12.1857 73.8025C11.7647 73.1709 11.8142 72.7959 12.6314 70.625C13.2009 69.0856 13.1514 68.0199 12.3342 65.5529C11.3932 62.6715 11.8142 58.4875 13.4733 54.1456C13.82 53.2181 15.1325 50.3958 16.3458 47.8894C18.4012 43.7252 19.9365 40.1924 21.2242 36.64C22.388 33.4626 23.8986 32.8113 26.152 34.548C26.8949 35.1204 27.2911 35.6532 27.5883 36.4821C28.2321 38.2583 27.9597 39.5806 26.2015 42.9752C25.3843 44.5541 24.7157 46.0737 24.7157 46.35C24.7157 47.0408 25.4339 47.1789 26.0282 46.5868C26.3006 46.3303 29.495 41.9292 33.1847 36.8374C45.6405 19.4896 48.5625 15.6017 49.3549 15.207C51.3607 14.2004 54.3323 15.5425 54.2828 17.3976C54.258 17.891 53.8618 18.7199 53.1189 19.8054C52.5246 20.7132 48.9092 25.9827 45.0957 31.5284C41.2822 37.0742 38.1125 41.7318 38.0382 41.8897C37.964 42.0476 38.0135 42.3634 38.1125 42.6199C38.2859 42.9752 38.484 43.0739 39.004 43.0147C39.6231 42.9555 40.5888 41.7318 49.7759 29.0417C55.3228 21.3843 60.1516 14.832 60.5231 14.457C61.7117 13.2729 63.5937 12.9571 65.4509 13.6281Z" fill="white"/>
<path d="M80.6058 26.9097C81.3487 27.5412 81.7202 28.4096 81.5468 29.1201C81.4478 29.4556 80.9278 30.5213 80.3582 31.4686L79.3429 33.2251L78.4515 33.0869C77.981 33.008 76.8914 32.8896 76.0742 32.8106L74.5637 32.6922L76.7428 29.6332C79.1201 26.3176 79.541 26.0018 80.6058 26.9097Z" fill="white"/>
<path d="M84.7165 41.0403C85.9051 42.0863 85.9299 43.7836 84.8155 45.8163C82.8593 49.3096 68.3481 74.3937 66.689 77.0975C63.5936 82.1696 60.944 84.5182 56.2885 86.2944C51.955 87.9522 47.0024 88.8206 43.3623 88.564C40.7374 88.3864 40.044 87.9325 40.6878 86.7483C41.1336 85.8997 41.9012 85.426 44.7737 84.1827C50.7169 81.6367 54.2332 79.3079 56.7095 76.3081C57.3286 75.5384 63.2717 67.427 69.9082 58.2499C76.5447 49.0727 82.1907 41.3758 82.4878 41.1192C83.1069 40.6061 84.1717 40.5469 84.7165 41.0403Z" fill="white"/>
<path d="M9.11498 76.3085C18.1287 78.5387 24.6166 81.3806 29.9407 85.4264C31.0302 86.2553 32.4913 87.5184 33.1599 88.2289C34.6457 89.8078 36.6019 92.8274 36.6019 93.5576C36.6019 94.3865 31.897 100.406 30.8074 100.978C29.8912 101.452 32.8132 94.0642 30.8074 91.9525C25.0128 85.8542 19.1192 82.9989 9.11498 80.0978C6.31676 79.2886 0.0764776 84.3212 0.00218856 83.9068C-0.0473375 83.5713 0.74508 82.3674 2.52802 80.0978C5.351 76.4467 5.97008 75.8151 6.73773 75.8349C7.03489 75.8349 8.0997 76.0519 9.11498 76.3085Z" fill="white"/>
<path d="M58.8639 88.782C58.9877 88.9794 59.5573 90.5385 60.1021 92.2555C61.1174 95.2751 61.1174 95.3738 60.7459 96.0448C60.2507 96.854 58.5172 91.4661 56.4619 92.2556C53.5151 93.3608 49.8418 93.9332 46.1521 93.9134C41.8929 93.8937 39.4497 100.11 36.8744 98.7289C36.602 98.5907 36.8991 98.0776 38.3602 96.2422L40.1679 93.9133L39.6231 92.7094C39.0288 91.3872 38.9545 90.8938 39.3259 90.7161C39.4745 90.6372 40.8365 90.6964 42.3718 90.8346C44.749 91.0516 45.5414 91.0319 47.8691 90.7556C50.5931 90.4398 54.7533 89.5123 56.4619 88.8215C57.6258 88.3478 58.542 88.3478 58.8639 88.782Z" fill="white"/>
</svg>
