<svg width="100" height="100" viewBox="0 0 100 100" fill="none" xmlns="http://www.w3.org/2000/svg">
<path d="M56.749 0.227055C56.1387 0.39064 53.2229 2.90577 43.6616 11.5963C30.1675 23.8447 30.3031 23.7016 30.3031 26.0531C30.3257 28.9772 32.6538 31.0425 35.9765 31.0629C38.5985 31.0629 38.4403 31.1856 51.7988 19.0598C62.7615 9.12202 63.9594 7.95647 64.2985 7.05675C65.2704 4.37804 64.1629 1.80157 61.5183 0.554226C60.5463 0.104366 60.0265 -0.0183239 58.9189 0.00212479C58.173 0.0225735 57.1784 0.124813 56.749 0.227055Z" fill="white"/>
<path d="M53.129 20.1832L41.4141 30.3441L49.3389 37.2177L59.596 46L70.7071 36.5L82.8283 25.5L72.9523 16.856C68.6109 13.0904 65.0275 10.0222 64.9586 10.0222C64.8897 10.0222 59.5606 14.5847 53.129 20.1832Z" fill="white"/>
<path d="M86.3909 26.1729C86.0663 26.2519 85.4865 26.4692 85.0923 26.6469C84.0719 27.1012 59.7221 48.1546 59.0727 49.1618C58.6089 49.8531 58.5393 50.2086 58.6089 51.275C58.7249 52.776 59.1887 53.724 60.3482 54.6918C61.6237 55.7978 62.5977 56.1138 64.592 56.1138C66.0762 56.1138 66.4936 56.0348 67.3749 55.5805C68.6735 54.9288 92.9074 34.2506 93.4872 33.3026C94.0901 32.3151 94.0901 29.9254 93.4872 28.8787C92.9074 27.8912 91.7943 26.9629 90.658 26.4889C89.684 26.0939 87.3186 25.9162 86.3909 26.1729Z" fill="white"/>
<path d="M22.9126 53.5856C11.3448 63.2005 1.59509 71.4561 1.25419 71.9158C-1.31391 75.2541 0.208768 79.8316 4.48136 81.6906C5.32224 82.0504 5.91313 82.1304 7.57217 82.1504C11.2084 82.1504 9.54938 83.4897 31.3441 63.1205C41.8892 53.2658 50.9798 44.7504 51.5253 44.2106L52.5253 43.2312L48.4572 39.6531C46.23 37.6941 44.2982 36.075 44.1619 36.075C44.0483 36.095 34.4804 43.9708 22.9126 53.5856Z" fill="white"/>
<path d="M51.9602 78.3614C50.249 79.2082 49.4749 80.7406 49.4749 83.3416V85.1563L47.6822 85.237C45.3802 85.3378 44.2597 85.9225 43.3633 87.475C42.7726 88.5034 42.7522 88.6042 42.7522 91.185V93.8667H69.867H96.9818L96.9003 91.185C96.8392 88.9873 96.7373 88.3824 96.391 87.717C95.4743 85.983 93.9871 85.2168 91.6036 85.1966H90.0147V83.2811C90.0147 82.1117 89.9128 81.1035 89.7498 80.7003C89.322 79.7123 88.3849 78.7243 87.4682 78.3211C86.6941 77.9581 85.7162 77.938 69.7448 77.938C52.8973 77.938 52.8362 77.938 51.9602 78.3614Z" fill="white"/>
<path d="M39.8109 96.4378C39.2416 97.1766 39.2619 98.8126 39.8312 99.4987C40.2582 99.9736 41.0309 100 69.7412 100H99.2242L99.6105 99.3667C100.18 98.4432 100.119 97.1239 99.4682 96.4642L98.9192 95.9101H69.5785C40.4819 95.9101 40.2176 95.9101 39.8109 96.4378Z" fill="white"/>
</svg>
