<svg width="100" height="100" viewBox="0 0 100 100" fill="none" xmlns="http://www.w3.org/2000/svg">
<path d="M19.2238 7.00017C19.0044 7.00106 18.7854 7.0059 18.5667 7.01451C18.0668 7.03423 17.569 7.07439 17.0742 7.13605C13.1159 7.6285 9.38848 9.58611 6.80432 13.172C1.9734 19.8766 7.23495 30.7448 17.9184 30.7448C18.0236 30.7448 18.1261 30.7426 18.2291 30.7408V30.867H30.1165C28.005 36.6025 24.1698 42.8056 19.8223 49.0502C19.3979 49.6597 18.9873 50.2832 18.5877 50.9157L25.4334 57.3215L14.3904 59.0107C7.96666 74.4217 9.00849 91.6508 23.8659 91.6508L25.6933 91.6623C30.3705 91.5601 34.8656 90.8918 37.7298 89.352C38.5491 88.9114 39.2274 88.4132 39.7842 87.8426H33.4159C29.4256 88.9092 25.4079 86.5985 24.1132 83.1956C22.3554 78.5759 25.5892 73.8091 30.3679 72.3585C31.5069 72.0125 32.6689 71.8504 33.8155 71.8504V71.7776H68.8173C68.7054 63.8176 72.0264 55.6211 78.4709 49.1899C83.1726 44.4973 86.7203 38.3219 88.5398 32.187L80.4483 27.7175L87.9602 26.4794L79.4477 21.8531H79.4467L79.4471 21.8527L79.4477 21.8531L89.6788 20.2666C88.6519 13.2511 84.0182 8.05606 74.493 8.05606C65.88 9.5845 42.5174 10.1277 28.2344 8.90973C25.3123 7.69734 22.2388 6.98744 19.2238 7.00017ZM19.3149 10.353C21.8934 10.3607 24.6942 11.035 27.4107 12.2586L27.4171 12.2461C28.3332 13.0949 29.0937 13.9916 29.7096 14.9324H15.1978L17.2733 17.582C19.3553 20.2406 21.1601 23.3168 21.4127 25.1156C21.5389 26.015 21.3911 26.4004 21.0566 26.6996C20.722 26.999 19.8342 27.3943 17.9182 27.3943C9.95199 27.3943 6.75447 19.3358 9.86857 15.014C11.9236 12.1624 14.5427 10.8322 17.5692 10.4557C18.1365 10.3849 18.72 10.3512 19.3149 10.353ZM22.1813 18.2826H31.2649C32.104 21.1032 31.9825 24.211 31.1581 27.5167H24.7368C25.1097 26.6155 25.182 25.6211 25.0509 24.6896C24.7511 22.554 23.5974 20.3755 22.1813 18.2826ZM42.1136 75.1276C43.3777 76.3538 44.3104 77.8722 44.7378 79.5939C45.4831 82.5942 45.3447 85.1885 44.391 87.339C43.5027 89.3423 41.9227 90.8867 40.016 92H86.5706C89.4063 92 91.4553 90.9821 92.8906 89.4332C94.3258 87.8844 95.0889 85.7557 94.9917 83.6335C94.9552 82.8317 94.7998 82.0357 94.5193 81.2708L80.7977 79.7999L89.0446 76.1199C87.4116 75.5028 85.386 75.1273 82.8865 75.1273L42.1136 75.1276ZM33.739 75.2183C33.5129 75.2178 33.2864 75.2269 33.0604 75.2458C32.5437 75.2892 32.0288 75.3847 31.5248 75.538C28.5591 76.4379 26.5516 79.3994 27.5777 82.0961C28.2986 83.991 30.5899 85.271 32.6129 84.5948L32.9181 84.4926H41.4275C41.6131 83.3525 41.5755 82.004 41.1609 80.335C40.4327 77.4025 37.129 75.2286 33.739 75.2183Z" fill="white"/>
</svg>
