<svg width="100" height="100" viewBox="0 0 100 100" fill="none" xmlns="http://www.w3.org/2000/svg">
<path d="M94.5314 0L72.5618 6.3412L81.4568 0.365879C75.8412 1.62519 68.7466 4.08849 59.8302 8.06424L45.2767 23.1227L50.4422 12.6037C45.4481 15.3606 40.154 18.9747 35.0528 23.2078L31.6662 36.8858L30.9375 26.7603C25.9005 31.355 21.1637 36.4603 17.2413 41.8422C13.1196 47.4793 9.89811 53.4354 8.28414 59.3703L2.25697 55.3712C2.7971 60.4127 4.46679 64.7947 7.20603 68.8151L0 66.6241C1.63754 71.6231 4.31461 74.8564 8.84142 77.4729C6.30581 84.5565 5.11624 91.9592 3.83878 99.3406L7.7826 100C12.3566 54.7543 44.6336 25.9094 73.805 13.1291L75.2839 16.8262C49.199 28.4195 28.9227 47.9898 18.313 76.1966C22.1925 76.2178 25.9863 75.7498 29.5014 74.8564L30.5517 61.9017L33.3595 73.7077C35.6958 72.8568 37.8391 71.8358 39.7467 70.6445L35.31 61.3912L42.3402 68.7939C44.0549 67.4324 45.4696 65.9009 46.5412 64.2204C53.0571 54.1161 59.873 44.0757 73.2906 35.6733L63.4953 32.2272L78.5204 32.6739C80.9639 31.4401 83.5359 29.9298 85.4864 28.5046L74.8338 27.6537L90.8448 23.9098C92.088 22.676 93.2454 21.3784 94.2956 20.0808C98.0037 15.4137 100.511 10.5552 99.9113 6.13699C99.6326 3.92682 98.3038 1.84854 96.1389 0.68496C95.6031 0.408424 95.0244 0.163795 94.5314 0Z" fill="white"/>
</svg>
