<svg width="100" height="100" viewBox="0 0 100 100" fill="none" xmlns="http://www.w3.org/2000/svg">
<path d="M47.0412 15.1621C42.9537 16.2629 39.437 19.8343 38.0897 24.1884C37.633 25.6806 37.5873 26.4389 37.496 34.6091L37.4047 43.3908L36.7196 44.4671C36.3314 45.0542 35.966 45.4456 35.8747 45.3233C35.7833 45.2254 35.2581 44.4916 34.7329 43.7088C33.5911 42.0943 32.084 40.7245 30.3028 39.746L29.0697 39.0366L29.3894 38.2049C29.6406 37.5445 29.6863 35.9545 29.6406 30.0103C29.5721 23.0632 29.5492 22.5495 29.0925 21.4977C28.4988 20.1278 27.1515 18.4889 25.9641 17.6816C24.1601 16.4586 21.3285 16.1406 19.4103 16.9233C19.0906 17.0456 18.6567 17.1924 18.4284 17.2413C17.2409 17.5104 15.2999 19.7609 14.5692 21.7423C14.1124 22.9898 14.0668 23.6503 13.9754 29.4721C13.8841 35.1962 14.0211 37.4955 14.4778 38.6452C14.5692 38.9143 14.2723 39.2079 13.4274 39.6726C10.2532 41.4583 7.87834 44.5405 6.73656 48.4299C6.39403 49.5307 6.30269 50.9739 6.21135 56.4288L6.12 63.1069H3.56243C-0.0684162 63.1069 9.05881e-05 63.009 9.05881e-05 68.2193C9.05881e-05 72.1087 0.0229261 72.1821 0.570978 72.7692C1.09619 73.3563 1.27888 73.3807 3.65377 73.3807H6.16568V77.4169V81.4531H3.56243C1.00485 81.4531 0.936346 81.4775 0.479636 82.0891C-0.114087 82.8963 -0.136923 83.6791 0.433965 84.4129L0.867839 85H50.0099H99.1519L99.5857 84.4129C100.157 83.6791 100.134 82.8963 99.5401 82.0891L99.0833 81.4531H95.658H92.2555V77.4169V73.3807H94.7446C96.8911 73.3807 97.3022 73.3073 97.8274 72.867L98.4211 72.3778V68.2193C98.4211 63.0824 98.4211 63.1069 95.7037 63.1069H93.8997L93.8083 56.4288C93.717 50.4847 93.6485 49.604 93.2146 48.1853C92.187 44.834 89.8806 41.7274 87.1175 40.0151C85.7017 39.11 85.6561 39.0611 85.8159 38.3028C85.9073 37.8869 85.9758 34.2911 85.9758 30.3283C85.9529 23.3323 85.9529 23.0632 85.4277 21.6689C84.7427 19.8343 83.4182 18.4155 81.4315 17.3636C80.107 16.6543 79.6503 16.5319 78.1432 16.5319C75.8596 16.5319 74.01 17.3636 72.48 19.1249C70.4476 21.4487 70.4476 21.4487 70.4476 30.9888V39.3546L69.7626 39.6971C68.3696 40.4065 66.3144 42.2656 65.3325 43.6843C64.7616 44.4671 64.2364 45.2254 64.145 45.3233C64.0537 45.4456 63.6883 45.0542 63.3001 44.4671L62.6151 43.3908L62.5237 34.6091C62.4324 26.4389 62.3867 25.6806 61.93 24.1884C60.7654 20.3969 58.0251 17.2903 54.5085 15.7002C53.321 15.1866 52.6588 15.0642 50.4666 15.0153C49.0279 14.9664 47.4751 15.0398 47.0412 15.1621ZM53.1612 18.8558C55.6274 19.7609 57.7739 22.0847 58.7559 24.8734C59.1897 26.1698 59.2354 26.9281 59.3267 33.1903C59.3724 37.0063 59.3724 40.1129 59.3039 40.1129C59.2354 40.1129 58.8015 39.8928 58.3677 39.5992C57.5684 39.11 57.5684 39.0611 57.7283 37.9603C57.8196 37.3243 57.8881 34.4378 57.8881 31.5514C57.8881 27.1727 57.8196 26.1454 57.4999 25.387C56.8377 23.797 55.9471 22.7941 54.6226 22.0847C53.458 21.4732 53.0241 21.3998 50.5579 21.302C46.105 21.1797 44.0498 22.1092 42.7938 24.8734L42.1316 26.2921V31.5514C42.1316 34.4378 42.2001 37.3243 42.2915 37.9603C42.4513 39.0611 42.4513 39.11 41.6521 39.5992C41.2182 39.8928 40.8071 40.1129 40.7386 40.1129C40.556 40.1129 40.6701 28.4447 40.8757 26.8303C41.7434 20.5192 47.498 16.7766 53.1612 18.8558ZM79.8787 20.1767C80.952 20.666 81.6827 21.3998 82.2308 22.5495C82.5961 23.3078 82.6646 23.9927 82.6646 26.6591V29.8391H77.9833H73.3021V27.1972C73.3021 25.5827 73.4391 24.0661 73.6446 23.3323C74.3982 20.5681 77.3668 19.076 79.8787 20.1767ZM53.0927 25.0446C54.4628 25.6806 54.6911 26.3411 54.6911 29.9369C54.6911 33.6551 54.4628 33.9975 53.458 31.8205C53.0698 31.0132 52.5446 30.2304 52.3162 30.0837C52.0651 29.9614 51.0375 29.8391 50.0099 29.8391C48.9823 29.8391 47.9547 29.9614 47.7035 30.0837C47.4751 30.2304 46.9499 31.0132 46.5617 31.8205C45.5569 33.9975 45.3286 33.6551 45.3286 29.9369C45.3286 26.3655 45.5569 25.6806 46.8814 25.069C47.8862 24.6043 52.0422 24.5798 53.0927 25.0446ZM26.7176 32.5298C26.7176 36.9085 26.7176 36.9574 26.1468 37.5445C25.8499 37.8869 25.3704 38.156 25.0963 38.156C24.7995 38.156 24.3428 38.4006 24.0459 38.6942C23.5435 39.2079 23.5207 39.3546 23.5207 43.1462C23.5207 46.8154 23.4978 47.0845 23.0183 47.6227C22.3789 48.3565 21.5797 48.332 20.8946 47.5737C20.3465 46.9867 20.3237 46.8888 20.3237 43.0483C20.3237 39.4525 20.278 39.0856 19.867 38.6452C19.6158 38.3762 19.1819 38.156 18.8851 38.156C18.611 38.156 18.1315 37.9848 17.8575 37.7646C17.3779 37.3977 17.3551 37.2754 17.3551 32.75V28.1267H22.0364H26.7176V32.5298ZM51.1516 34.4868C51.8595 36.0768 52.2934 36.4682 53.5494 36.6149C54.7368 36.7617 54.8053 37.0063 54.1431 38.5229C52.4989 42.3634 47.3153 42.2411 45.7853 38.3517C45.2601 36.9329 45.3286 36.7617 46.4704 36.6149C47.7263 36.4682 48.1602 36.0768 48.8681 34.4868C49.302 33.4594 49.5075 33.2637 50.0099 33.2637C50.5122 33.2637 50.7178 33.4594 51.1516 34.4868ZM17.8803 48.9925C19.4788 51.9034 23.0183 52.3927 25.2333 50.0444C26.4208 48.7479 26.7176 47.6471 26.7176 44.4182V41.8253L27.8823 42.3145C30.3028 43.2929 32.2438 45.2499 33.4085 47.8917L34.1392 49.5307L34.2077 56.3065L34.2762 63.1069H32.7919H31.2847V57.7742C31.2847 52.0502 31.2847 51.9768 30.0745 51.5365C29.5721 51.3408 28.4303 51.9279 28.2248 52.4661C28.1563 52.6862 28.0878 55.1813 28.0878 57.9944V63.1069H27.2885C26.4893 63.1069 26.4893 63.1069 26.6263 62.1773C26.9232 60.147 25.7129 57.8476 23.8632 56.967C23.1096 56.6001 22.3332 56.5022 19.3646 56.5022H15.7566V54.5698C15.7566 52.2704 15.3684 51.5365 14.1581 51.5365C12.788 51.5365 12.5596 52.1481 12.5596 55.7684C12.5596 58.875 12.5596 58.9239 13.1533 59.4132C13.6557 59.829 14.0896 59.9268 15.4369 59.9268H17.1267V61.5169V63.1069H13.3589H9.61384L9.54533 59.3398C9.43115 53.4934 9.65951 50.0199 10.2304 48.4299C11.2123 45.788 13.4959 43.2929 15.8708 42.3389L17.0126 41.8742L17.1496 44.8585C17.2638 47.5493 17.3323 47.9896 17.8803 48.9925ZM46.4704 43.9045C46.8129 44.1246 46.4704 44.6873 43.7529 48.4054L40.6473 52.6617V57.8965V63.1069H39.0488H37.4503V57.5296C37.4503 54.4474 37.5645 51.2919 37.7015 50.4847C38.2267 47.3291 40.3733 44.198 42.9537 42.7793L44.164 42.1432L45.1002 42.9016C45.6254 43.3174 46.242 43.7822 46.4704 43.9045ZM56.1754 47.5737V52.833L53.3895 57.9699L50.5807 63.0824L47.2239 63.1069H43.8443V58.3858V53.6891L47.0641 49.286C50.2382 44.9563 50.3067 44.883 51.3115 44.7117C52.5218 44.516 54.5541 43.5131 55.1478 42.8037C56.1069 41.6785 56.1754 41.9965 56.1754 47.5737ZM73.3249 43.1706C73.873 43.6354 74.8092 44.198 75.4258 44.4182L76.499 44.8096V50.7537C76.499 56.3555 76.4762 56.7224 76.0652 56.8691C75.3573 57.1138 74.01 58.7282 73.6218 59.829C73.3706 60.5139 73.2792 61.2967 73.3477 62.0061L73.4847 63.1069H72.7083H71.9319V57.8476C71.9319 52.5639 71.9319 52.5639 71.3611 51.9768C70.676 51.243 70.1279 51.2185 69.3287 51.879L68.735 52.3682V57.7498V63.1069H67.2278H65.7435L65.812 56.3065L65.8805 49.5307L66.6569 47.8183C67.5704 45.837 69.4657 43.6599 71.0185 42.8526C71.5894 42.5591 72.1146 42.3145 72.1831 42.3145C72.2516 42.3145 72.7769 42.7059 73.3249 43.1706ZM85.2222 42.9505C86.9349 43.88 88.4877 45.6902 89.4696 47.8917L90.3145 49.7753L90.383 56.4288L90.4515 63.1069H86.6837H82.893V61.5169V59.9268H84.7198C87.3916 59.9268 87.4601 59.829 87.4601 55.6705C87.4601 52.4171 87.4601 52.3682 86.8664 51.879C86.5238 51.5854 86.09 51.3653 85.8616 51.3653C85.6332 51.3653 85.1994 51.5854 84.8568 51.879C84.3088 52.3438 84.2631 52.515 84.2631 54.4474V56.5022H81.9796H79.696V50.6804V44.8585L81.1575 44.198C81.9567 43.8066 82.8473 43.244 83.1442 42.9016C83.7836 42.1677 83.7836 42.1677 85.2222 42.9505ZM61.3819 47.5493C62.3867 49.7264 62.5694 51.2919 62.5694 57.5296V63.1069H60.9709H59.3724V53.8848V44.6628L60.0346 45.3477C60.4 45.7391 61.0166 46.7176 61.3819 47.5493ZM56.1754 61.3945V63.1069H55.1707H54.1659L55.0793 61.3945C55.5817 60.4405 56.0384 59.6822 56.0841 59.6822C56.1298 59.6822 56.1754 60.4405 56.1754 61.3945ZM23.064 60.4161C23.612 61.0032 23.6577 61.8104 23.1553 62.5687C22.8813 63.009 22.5844 63.1069 21.5568 63.1069H20.3237V61.5169V59.9268H21.4655C22.3104 59.9268 22.7214 60.0492 23.064 60.4161ZM79.696 61.5169V63.1069H78.4629C77.4353 63.1069 77.1384 63.009 76.8644 62.5687C75.951 61.1988 76.7731 59.9268 78.5542 59.9268H79.696V61.5169ZM95.2242 68.1215V69.7115H49.3248H3.42542V68.1215V66.5315H49.3248H95.2242V68.1215ZM88.8302 77.4169V81.4531H49.2106H9.591V77.4169V73.3807H49.2106H88.8302V77.4169Z" fill="white"/>
</svg>
