<svg width="100" height="100" viewBox="0 0 100 100" fill="none" xmlns="http://www.w3.org/2000/svg">
<path d="M51 14.6018C51 24.1165 51.15 29.2036 51.5 29.2036C51.85 29.2036 52 24.1165 52 14.6018C52 5.08714 51.85 7.24792e-05 51.5 7.24792e-05C51.15 7.24792e-05 51 5.08714 51 14.6018Z" fill="white"/>
<path d="M18 13.2808C18 13.7929 39.7301 33.016 39.9973 32.7402C40.1309 32.6221 35.2327 28.1314 29.1322 22.7348C22.9872 17.2987 18 13.0838 18 13.2808Z" fill="white"/>
<path d="M73.1764 22.8916C66.7544 28.3297 61.7751 32.7432 62.0078 32.7432C62.6127 32.7432 85.3222 13.5129 84.9965 13.2765C84.8569 13.1583 79.5518 17.493 73.1764 22.8916Z" fill="white"/>
<path d="M41 20.5721C41 20.9211 44.3804 29.6465 44.6843 30.0343C44.7602 30.1119 44.8742 30.1119 44.9881 29.9955C45.1021 29.8792 44.3804 27.8239 43.3929 25.3808C41.7216 21.1926 41 19.7577 41 20.5721Z" fill="white"/>
<path d="M61.0468 21.0845C60.7546 21.5943 59.469 23.7906 58.1249 25.9083C56.7808 28.0261 55.8458 29.8694 56.0211 29.987C56.4302 30.2616 56.3717 30.34 59.469 25.2416C61.0468 22.6924 62.1571 20.5354 61.9818 20.3786C61.748 20.2609 61.339 20.5747 61.0468 21.0845Z" fill="white"/>
<path d="M48.137 27.505C48.5649 29.2647 49.2496 29.891 48.9073 28.2506C48.7789 27.505 48.4793 26.7594 48.2226 26.6103C47.9658 26.4015 47.923 26.7296 48.137 27.505Z" fill="white"/>
<path d="M54.5664 25.9499C54.4373 26.1421 54.2222 27.0261 54.0931 27.987C53.749 30.0625 54.4373 29.2938 54.8675 27.103C55.1256 25.7962 54.9966 25.2965 54.5664 25.9499Z" fill="white"/>
<path d="M40 28.6431C40 29.13 42.6735 32.0512 42.988 31.8483C43.1977 31.6455 40.5766 28.3186 40.2097 28.3186C40.1048 28.3186 40 28.4403 40 28.6431Z" fill="white"/>
<path d="M60.8184 29.8749C60.2736 30.8165 59.9104 31.7153 60.0193 31.8437C60.092 31.9721 60.6368 31.2445 61.1816 30.3029C61.7264 29.3185 62.0896 28.4196 61.9807 28.334C61.8717 28.2056 61.3632 28.8904 60.8184 29.8749Z" fill="white"/>
<path d="M47.6428 30.3836C41.9053 32.0585 38.0482 36.6538 38 41.8503C38 44.8136 38.5785 46.6603 40.3143 49.0224C42.0982 51.3845 42.1464 50.6544 40.4107 47.9058C35.4446 40.0466 41.4714 30.6842 51.5 30.6842C55.4053 30.6842 58.3464 31.8438 61.0946 34.5064C64.8553 38.1569 65.4339 43.3535 62.5892 47.9058C60.8535 50.6544 60.9017 51.3845 62.6857 49.0224C64.4214 46.6603 65 44.8136 65 41.8503C64.9517 37.4268 62.0589 33.261 57.5267 31.1996C55.4535 30.2118 49.7642 29.7394 47.6428 30.3836Z" fill="white"/>
<path d="M35 32.8768C35 33.1222 38.7487 34.6558 38.983 34.5024C39.1236 34.4104 38.3739 33.981 37.343 33.5209C35.5155 32.7235 35 32.6008 35 32.8768Z" fill="white"/>
<path d="M47.3629 32.5204C44.7475 33.3666 41.2762 36.6669 40.5629 39.0787C39.7069 41.7867 40.1824 44.9177 41.7041 47.2449C42.4174 48.345 43.1307 49.1489 43.2734 49.022C43.4636 48.895 43.2258 48.4296 42.7978 48.0065C40.7531 45.9755 40.0398 42.2098 41.0859 38.9941C42.3223 35.3553 47.0776 32.2665 51.5 32.2665C55.9224 32.2665 60.6776 35.3553 61.914 38.9941C63.0077 42.2944 62.0566 46.6948 59.9643 48.2604C58.4426 49.3605 57.8245 48.4719 57.3489 44.2831C56.6832 38.9518 55.9699 38.1902 51.5 38.1902C46.9349 38.1902 46.2692 38.9095 45.6034 44.6215C45.1755 48.7681 45.0804 48.9797 43.5111 50.2067C41.7517 51.603 40.4678 53.5916 39.6594 56.2573C39.1838 57.7805 38.7559 58.2036 36.4733 59.3884C34.9992 60.1077 33.7153 61.0385 33.5251 61.4193C33.3824 61.8001 32.9545 62.3079 32.574 62.5618C31.4803 63.2811 32.051 65.0581 33.43 65.1851C34.1908 65.2697 35.0468 65.8621 35.7125 66.7506C36.2831 67.5545 37.044 68.2315 37.3768 68.2315C37.7573 68.2315 38.9461 67.0891 40.0873 65.6928C41.2286 64.2965 42.4174 63.1964 42.6552 63.2811C43.3209 63.4926 43.7964 66.2429 43.9391 70.7702C43.9867 72.7589 44.1293 73.6051 44.2244 72.6743C44.3671 71.6588 44.8902 70.5587 45.5559 69.924C49.0748 66.5391 52.451 60.15 54.686 52.5339L55.9223 48.4296L57.3489 48.8104C58.1573 49.022 58.9657 49.4028 59.2035 49.699C59.7266 50.4183 59.2986 53.2532 58.0622 57.2305C56.493 62.3079 52.7363 70.3048 52.1657 69.7971C52.023 69.6701 52.451 68.6123 53.1168 67.4276C55.0664 64.085 54.5433 64.2965 52.4986 67.6815C51.5 69.374 50.0734 71.4472 49.3125 72.3358C48.5993 73.2243 48.3139 73.6898 48.7895 73.3513C49.2174 73.0551 50.0258 72.1242 50.5965 71.3203C51.1671 70.5164 51.7377 69.9663 51.8804 70.0933C52.2133 70.4317 50.0258 73.2243 47.9811 75.086C46.079 76.8208 45.7937 77.3709 47.1727 76.7362C48.7419 75.9746 52.4986 71.1087 54.6384 67.1737C56.9685 62.7733 58.7755 58.0344 59.6315 54.2686L60.2021 51.6453L61.2958 53.2532C61.914 54.1417 62.5322 55.6649 62.7224 56.5958C62.9601 58.119 63.2454 58.4998 65.1 59.3461L67.1448 60.3615L66.0986 61.4616C65.1951 62.3925 65.1475 62.4348 66.051 61.7578C67.7154 60.5308 68.4287 60.9116 67.0021 62.2656C66.2888 62.9426 65.4329 64.1696 65.1 65.0581L64.4818 66.6237L62.9126 64.6773C62.0566 63.6195 61.2007 62.731 61.0105 62.731C60.8203 62.731 60.107 62.2656 59.3937 61.6732C58.6328 61.0385 58.1573 60.8693 58.1573 61.2078C58.1573 61.5463 58.4426 62.0117 58.8231 62.2656C59.3461 62.6464 59.3937 63.1118 59.0608 64.1273C58.8231 64.8466 58.5377 67.5545 58.4426 70.1356C58.2524 74.1975 58.2524 74.4514 58.6328 72.0396C58.8706 70.5164 59.251 67.9777 59.4412 66.3698C59.6315 64.762 60.0594 63.3657 60.3447 63.2811C60.5825 63.1964 61.7713 64.2965 62.9126 65.6928C64.0538 67.0891 65.2427 68.2315 65.6231 68.2315C65.9559 68.2315 66.7168 67.5545 67.2874 66.7506C67.9532 65.8621 68.8091 65.2697 69.5699 65.1851C70.949 65.0581 71.5196 63.2811 70.4259 62.5618C70.0455 62.3079 69.6175 61.8001 69.4748 61.4193C69.2846 61.0385 67.9532 60.1077 66.479 59.3461C65.0049 58.5844 63.721 57.7805 63.6259 57.4843C63.5783 57.2305 63.2454 56.2573 62.9601 55.2841C62.6748 54.3109 61.914 52.83 61.2482 51.9838C59.7266 49.9951 59.7741 49.7836 61.486 46.8641C64.0538 42.5483 63.293 38.3594 59.4412 35.0168C55.8748 31.928 51.8804 31.1241 47.3629 32.5204ZM52.9741 41.9559C53.4972 42.6329 54.4958 43.3945 55.114 43.6907C56.1601 44.1984 56.1601 44.2831 55.4944 45.4255C54.686 46.8641 53.8776 46.991 53.0216 45.8063C52.6888 45.3408 52.023 44.96 51.5 44.96C50.9769 44.96 50.3111 45.3408 49.9783 45.8063C49.1223 46.991 48.3139 46.8641 47.5055 45.4255C46.8398 44.2831 46.8398 44.1984 47.886 43.6907C48.5041 43.3945 49.5028 42.6329 50.0258 41.9559C50.5965 41.2789 51.2622 40.7289 51.5 40.7289C51.7377 40.7289 52.4035 41.2789 52.9741 41.9559ZM52.451 45.9755C52.451 46.0601 52.5937 46.441 52.7363 46.8218C52.9741 47.3718 52.6888 47.4987 51.5475 47.4987C49.9783 47.4987 49.9307 47.4564 50.3587 46.4833C50.5965 45.8909 52.451 45.4678 52.451 45.9755ZM49.5979 50.0375C50.5014 50.249 52.0706 50.3336 53.0216 50.1644L54.7811 49.9528L53.83 53.0416C52.0706 58.8806 49.5503 63.9157 46.602 67.7661C45.0328 69.7971 44.3671 69.5855 44.3671 66.9622C44.3671 66.1583 44.1769 64.8889 43.9391 64.1273C43.6062 63.1118 43.6538 62.6464 44.1769 62.2656C44.5573 62.0117 44.8426 61.504 44.8426 61.2078C44.8426 60.7847 44.5573 60.8693 43.8915 61.4616C43.3685 61.9271 42.7503 62.3079 42.5125 62.3079C42.2748 62.3079 41.2762 63.2811 40.2776 64.4658L38.5181 66.6237L37.8999 65.0581C37.5671 64.1696 36.7111 62.9426 36.0454 62.3079L34.7615 61.1231L36.7587 59.9807C37.8524 59.3884 39.0412 58.7537 39.4216 58.6268C39.802 58.4998 40.0873 57.9498 40.0873 57.3997C40.0873 56.8497 40.2776 56.3842 40.5629 56.3842C40.8006 56.3842 40.8957 56.1304 40.7531 55.7919C39.9922 54.0571 44.9853 48.8527 46.9349 49.4028C47.458 49.5297 48.6944 49.8259 49.5979 50.0375Z" fill="white"/>
<path d="M44.6026 50.5768C43.217 51.7264 41 54.8994 41 55.6812C41.0462 55.9571 41.4618 55.4053 41.9237 54.4855C42.4318 53.5658 43.5865 52.0483 44.5564 51.1286C46.4501 49.2892 46.4963 49.0132 44.6026 50.5768Z" fill="white"/>
<path d="M36.7884 61.9471C37.3386 62.4427 37.8887 62.832 37.9733 62.832C38.1003 62.832 37.7618 62.4427 37.2116 61.9471C36.6614 61.4515 36.1113 61.0621 36.0267 61.0621C35.8997 61.0621 36.2382 61.4515 36.7884 61.9471Z" fill="white"/>
<path d="M65.1377 33.5521C64.435 33.9813 63.908 34.4105 64.0134 34.5024C64.1891 34.6557 66.9999 33.123 66.9999 32.8777C66.9999 32.5712 66.4378 32.7858 65.1377 33.5521Z" fill="white"/>
<path d="M26.2726 33.1322C26.7997 33.6682 37.006 38.0532 37.6768 38.0532C38.8268 38.0532 36.9102 37.03 31.8789 34.935C26.4163 32.645 25.4101 32.3527 26.2726 33.1322Z" fill="white"/>
<path d="M71.1592 34.7497C68.8321 35.9119 66.4154 37.0235 65.8337 37.2761C65.2519 37.5288 64.8939 37.8825 65.0281 38.034C65.3414 38.3877 75.5449 33.7392 75.9029 33.1328C76.3057 32.3749 75.5897 32.6275 71.1592 34.7497Z" fill="white"/>
<path d="M32 39.1247C32 39.2971 33.0859 39.5728 34.3787 39.7107C37.1193 39.9864 38.0501 39.7107 35.5163 39.366C34.5855 39.2626 33.3962 39.0558 32.9308 38.9869C32.4137 38.8835 32 38.9524 32 39.1247Z" fill="white"/>
<path d="M68.0203 39.5982C66.7873 39.9231 65.8626 40.3778 66.0167 40.5727C66.4277 41.0924 70.9999 39.988 70.9999 39.4034C70.9999 38.7537 70.9999 38.7537 68.0203 39.5982Z" fill="white"/>
<path d="M6.00478 42.9203C5.8216 43.23 10.9048 43.3628 20.8421 43.3628C30.6421 43.3628 36 43.1858 36 42.9203C36 42.6548 30.7337 42.4778 21.1627 42.4778C11.7291 42.4778 6.18796 42.6548 6.00478 42.9203Z" fill="white"/>
<path d="M65.9999 42.9203C65.9999 43.1858 71.5365 43.3628 81.6631 43.3628C91.9317 43.3628 97.1843 43.23 96.995 42.9203C96.8057 42.6548 91.0799 42.4778 81.3318 42.4778C71.4418 42.4778 65.9999 42.6548 65.9999 42.9203Z" fill="white"/>
<path d="M33.94 46.2039C33.1916 46.3067 32.3898 46.5125 32.0691 46.7182C31.3742 47.1639 36.1316 46.7182 36.8799 46.2725C37.361 45.9639 36.3989 45.9296 33.94 46.2039Z" fill="white"/>
<path d="M66.1033 46.2244C66.4228 46.3929 67.7011 46.6626 69.0325 46.7975C70.6303 46.966 71.2694 46.9323 70.8966 46.6963C70.6303 46.5278 69.2988 46.2581 67.9673 46.1232C66.3696 45.9547 65.7305 45.9884 66.1033 46.2244Z" fill="white"/>
<path d="M31.8265 49.6898C26.4666 51.5766 25.7009 51.9303 26.0838 52.2055C26.3709 52.402 38 48.3533 38 47.9996C38 47.5672 37.7128 47.6458 31.8265 49.6898Z" fill="white"/>
<path d="M64.9999 48.0715C64.9999 48.2743 67.5276 49.3287 70.5875 50.5047C73.6473 51.6402 76.0863 52.4107 75.9976 52.1674C75.8646 51.8835 65.7538 47.7876 65.133 47.7876C65.0443 47.7876 64.9999 47.9093 64.9999 48.0715Z" fill="white"/>
<path d="M36.5171 51.2514C35.5801 51.6805 34.8774 52.1097 35.0179 52.2017C35.2522 52.3549 39 50.8222 39 50.577C39 50.2704 38.2504 50.485 36.5171 51.2514Z" fill="white"/>
<path d="M63.9999 50.576C63.9999 50.8214 66.8115 52.355 66.9872 52.2016C67.0927 52.1096 66.5303 51.6802 65.7572 51.2202C64.3865 50.4227 63.9999 50.3 63.9999 50.576Z" fill="white"/>
<path d="M29.2691 62.1851C22.9433 67.7831 17.8642 72.4414 18.0028 72.564C18.1413 72.6865 23.4051 68.1918 29.7309 62.5937C36.0566 56.9957 41.1357 52.3375 40.9972 52.2149C40.8587 52.0923 35.5949 56.5871 29.2691 62.1851Z" fill="white"/>
<path d="M61.9999 52.2192C61.9999 52.4633 67.1979 57.223 73.4999 62.7962C79.8479 68.3695 84.9999 72.763 84.9999 72.5596C84.9999 72.3155 79.8479 67.5559 73.4999 61.9826C67.1979 56.4093 61.9999 52.0158 61.9999 52.2192Z" fill="white"/>
<path d="M58.0245 52.7212C58.0245 53.1143 58.3991 53.2215 58.7738 52.9356C59.1484 52.6855 59.0236 52.3639 58.6489 52.2566C58.2743 52.1137 57.8996 52.3281 58.0245 52.7212Z" fill="white"/>
<path d="M57.0245 56.2613C57.0245 56.6544 57.3991 56.7616 57.7738 56.4757C58.1484 56.2255 58.0236 55.9039 57.6489 55.7967C57.2743 55.6537 56.8996 55.8682 57.0245 56.2613Z" fill="white"/>
<path d="M56.0245 58.916C56.0245 59.3092 56.3991 59.4164 56.7738 59.1305C57.1484 58.8803 57.0236 58.5587 56.6489 58.4515C56.2743 58.3085 55.8996 58.5229 56.0245 58.916Z" fill="white"/>
<path d="M55.3278 63.1093C55.0696 63.851 54.9405 64.5102 55.0266 64.5926C55.1126 64.675 55.4139 64.1806 55.6722 63.4389C55.9304 62.6973 56.0595 62.0381 55.9734 61.9556C55.8874 61.8732 55.5861 62.3677 55.3278 63.1093Z" fill="white"/>
<path d="M37.2037 72.314C35.6129 72.7442 34.1603 73.5431 33.3995 74.4035L32.6732 75.2331L33.9528 75.6326C34.6791 75.8477 35.5091 76.2472 35.8204 76.493C36.27 76.8617 36.5466 76.8617 37.7225 76.493C40.178 75.7248 42.6681 76.0321 44.9506 77.4148C46.0919 78.1215 46.1957 78.1215 46.1957 77.5684C46.1957 75.6633 43.7748 73.1744 41.2501 72.4984C39.348 72.0067 38.5525 71.976 37.2037 72.314Z" fill="white"/>
<path d="M58.5769 72.4988C56.3981 73.1134 54.323 75.2028 53.8388 77.2923C53.6313 78.1527 53.5276 78.9516 53.6313 79.0745C53.7005 79.2282 53.3892 79.6583 52.9396 80.0271C52.4554 80.4265 52.075 80.8567 52.075 80.9489C52.075 81.0718 52.8359 81.2562 53.7696 81.3484C54.738 81.4405 55.983 81.7478 56.571 82.0244C57.6085 82.516 57.7123 82.516 58.4385 81.9322C59.5106 81.0411 60.5482 80.6416 61.724 80.6416C62.727 80.6416 62.7962 80.5802 62.7962 79.4433C62.7962 77.8147 64.0066 76.309 65.8396 75.7252L67.3267 75.2336L66.6004 74.4039C64.9404 72.5295 61.4128 71.6999 58.5769 72.4988Z" fill="white"/>
<path d="M30.0102 76.9542C29.3877 77.2922 28.5923 77.9989 28.281 78.4906C27.8314 79.1973 27.451 79.4124 26.6556 79.4124C26.1022 79.4124 25.0993 79.6889 24.4767 80.027C22.8859 80.8873 22.0904 80.8259 21.8137 79.7504C21.6062 78.8593 20.292 77.5995 18.9778 76.9849C17.7328 76.4318 15.6232 76.5855 14.3781 77.3229C12.6835 78.3677 12.3722 78.9515 13.1331 79.6889C13.9285 80.4571 13.6173 80.5186 12.476 79.8426C10.7468 78.8593 8.15294 79.9962 7.46125 82.055C7.21916 82.8232 7.18458 82.8539 7.14999 82.2393C7.08083 81.1331 5.66287 81.379 4.03741 82.7617C3.24197 83.4377 2.61945 84.1137 2.61945 84.2674C2.61945 84.6361 1.78942 84.9434 0.613557 84.9741C-1.59984 85.0663 2.65403 85.5272 5.76662 85.5272C8.29128 85.5579 9.22505 85.6808 9.53631 86.0188C9.7784 86.2647 10.2626 86.4798 10.6084 86.4798C10.9543 86.4798 11.3347 86.6027 11.4385 86.787C11.8189 87.3401 13.6518 87.125 14.1014 86.4798C14.5165 85.9267 14.9315 85.8652 18.7357 85.8652C22.2288 85.8652 23.0242 85.9574 23.4046 86.3876C23.6813 86.6641 24.4076 87.0636 25.0647 87.3094C26.1368 87.7089 26.2751 87.7089 27.0014 87.0943C27.451 86.7256 28.3502 86.2647 29.0073 86.0496C30.5982 85.5579 31.8432 84.1752 32.1545 82.5159C32.4311 80.8566 33.192 79.5353 34.5062 78.2755L35.5437 77.3229L34.5062 76.8313C33.0537 76.1553 31.3936 76.2167 30.0102 76.9542Z" fill="white"/>
<path d="M65.3209 76.954C64.145 77.5685 63.1421 78.982 63.1421 79.996C63.1421 80.4262 63.4533 80.6413 64.2142 80.7949C64.8021 80.9179 65.9088 81.5631 66.6351 82.2084C67.3614 82.8537 68.2952 83.4068 68.6756 83.4068C69.7131 83.4068 71.3732 84.2364 71.7882 84.9432C72.0303 85.3426 72.5144 85.5577 73.137 85.5577C73.6903 85.5577 74.5203 85.8343 75.0391 86.203C75.9037 86.8176 76.0075 86.8176 76.5954 86.3566C77.0796 85.9572 78.0134 85.865 81.3334 85.865C85.0686 85.865 85.4836 85.9265 85.8986 86.4796C86.3482 87.1248 88.1811 87.3399 88.5616 86.7868C88.6653 86.6025 89.0458 86.4796 89.3916 86.4796C89.7374 86.4796 90.2216 86.2645 90.4637 86.0186C90.775 85.6806 91.7087 85.5577 94.2334 85.527C97.346 85.527 101.6 85.0661 99.3865 84.9739C98.2106 84.9432 97.3806 84.6359 97.3806 84.2672C97.3806 84.1135 96.7581 83.4375 95.9626 82.7615C94.3372 81.3788 92.9192 81.1329 92.85 82.2391C92.8154 82.8537 92.7809 82.823 92.5388 82.0548C91.8125 79.9038 89.4262 78.9206 87.3165 79.8731L86.1407 80.4262L86.8324 79.7502C87.6278 78.9513 87.3511 78.3675 85.6219 77.3227C84.3769 76.5852 82.2672 76.4316 81.0222 76.9847C79.708 77.5993 78.3938 78.8591 78.1863 79.7502C77.9096 80.8257 77.1142 80.8871 75.5233 80.0267C74.9008 79.6887 73.9324 79.4122 73.3445 79.4122C72.549 79.4122 72.1686 79.1971 71.719 78.4904C70.4394 76.4931 67.4651 75.7863 65.3209 76.954Z" fill="white"/>
<path d="M36.8234 77.6615C34.7483 78.6448 33.3649 80.4884 33.1228 82.5472C32.9845 83.7763 32.7424 84.3601 32.0507 84.9132C31.5665 85.3434 31.3244 85.7121 31.4974 85.7428C31.7049 85.7736 32.2582 85.8965 32.777 85.9887C34.0566 86.2345 35.8204 87.648 36.3738 88.8463L36.8579 89.8604L37.9992 89.2458C38.5872 88.9078 39.4863 88.6312 39.9705 88.6312C40.5585 88.6312 41.181 88.2625 41.8381 87.525C42.3914 86.9105 43.429 86.173 44.1898 85.8658C44.9507 85.5585 45.8499 84.9132 46.1957 84.3908C46.5761 83.8685 47.5099 83.0388 48.3053 82.5779L49.7579 81.7483L48.6166 81.3181C45.9536 80.3655 43.2215 81.8712 42.3568 84.7903C42.1493 85.497 42.0802 85.3127 42.1839 84.0528C42.2877 82.5779 42.4606 82.2399 43.5673 81.3488C44.259 80.765 45.1582 80.3348 45.6769 80.3348C46.7145 80.3348 46.7491 80.0582 45.8499 79.0135C44.0515 76.9855 39.6938 76.3402 36.8234 77.6615Z" fill="white"/>
<path d="M60.4099 81.7477C58.3002 82.5467 58.1965 82.7617 59.234 83.8372C60.3753 85.0663 61.067 86.5105 61.067 87.7704C61.1016 89.1531 62.4158 90.4744 63.8337 90.4744C64.3871 90.4744 64.8713 90.5973 64.8713 90.7817C64.8713 90.9353 65.2517 91.304 65.7359 91.5806C66.5313 92.0415 66.6697 92.0415 67.4651 91.5806C67.9493 91.304 68.5026 91.1504 68.641 91.2426C68.8139 91.3348 69.1943 91.2119 69.471 90.966C69.8168 90.6588 71.2694 90.4437 74.5203 90.29C77.0104 90.1671 79.1546 89.952 79.2583 89.8291C79.3621 89.6755 78.8088 89.5526 78.0479 89.5526C76.8374 89.5526 76.6299 89.4604 76.6299 88.9073C76.6299 88.5385 76.3533 88.2005 75.9383 88.1084C75.5924 88.0162 75.1774 87.7089 75.0736 87.4016C74.8316 86.7563 72.9294 85.9574 72.4798 86.3569C72.3415 86.5105 72.134 86.91 72.0302 87.248C71.9265 87.7089 71.8573 87.6474 71.8227 87.0022C71.7536 85.6501 70.0589 84.3289 68.4335 84.3289C67.7072 84.3289 66.7042 84.5747 66.2546 84.8512L65.39 85.3429L66.1855 84.5747L66.9463 83.8065L66.2201 82.9461C65.39 82.0243 63.6262 81.2561 62.3812 81.2561C61.9316 81.2868 61.067 81.4712 60.4099 81.7477Z" fill="white"/>
<path d="M49.6541 82.7618C47.2678 83.8987 46.2303 85.558 47.8903 85.558C48.8241 85.558 50.3804 86.7564 50.8992 87.8933C51.4525 89.0917 51.5563 90.5973 51.0375 90.3208C50.8646 90.2286 50.6916 89.7984 50.6916 89.399C50.6916 87.6475 47.6828 85.9267 45.3311 86.2955C44.086 86.5106 42.0456 88.0777 42.0456 88.8151C42.0456 89.0917 41.6997 89.2453 41.1118 89.2453C40.5584 89.2453 39.4517 89.5219 38.6217 89.8599C36.5812 90.6895 36.27 90.6281 35.682 89.4604C35.0595 88.1391 33.3303 86.8486 31.8086 86.6027C30.2523 86.3569 27.6931 87.1866 26.9322 88.2006C26.4134 88.9073 26.448 88.9995 27.2089 89.7677L28.0389 90.5666L27.1051 90.0135C25.0647 88.8766 22.1596 89.6448 21.7446 91.4577C21.5371 92.3181 21.5025 92.3488 21.0875 91.8572C20.4995 91.1504 19.0816 91.4577 18.3207 92.4717C18.0095 92.9019 17.5253 93.2399 17.2832 93.2399C16.799 93.2399 16.6607 93.6086 16.7644 94.3768C16.799 94.6534 16.2802 94.7763 15.1735 94.807C12.1647 94.8378 14.6548 95.2987 18.9432 95.483C21.1566 95.5752 23.2663 95.7903 23.6121 95.9747C26.3789 97.2652 27.5893 97.3267 28.2464 96.282C28.5577 95.7596 29.0419 95.6981 32.6732 95.6981C35.9587 95.6981 36.8579 95.7903 37.2383 96.1898C38.8638 97.9412 42.4606 97.9412 44.086 96.1898C44.7086 95.5138 45.6077 95.5752 46.4032 96.3434C46.8528 96.8043 47.3715 96.958 48.3399 96.8658C49.0662 96.8351 49.827 96.958 50.0691 97.1731C50.3112 97.3881 51.0029 97.5418 51.6254 97.5418C52.905 97.5418 54.0117 96.4049 53.7005 95.3909C53.5967 95.0528 53.6659 94.8378 53.8388 94.9607C54.3576 95.2372 54.1847 97.1116 53.6313 97.5418C52.6284 98.2793 54.7034 100 56.571 100C58.5423 100 60.3753 98.2485 60.3753 96.3127V95.3909H62.8999C64.2487 95.3909 65.6321 95.2372 65.9087 95.0836C66.2892 94.8685 66.1508 94.7763 65.2862 94.7763C64.2833 94.7763 64.1795 94.7148 64.387 94.0388C64.5945 93.2706 63.7991 92.3181 62.9345 92.3181C62.6924 92.3181 62.3811 91.9801 62.2428 91.5806C62.1391 91.1812 61.6549 90.5359 61.2053 90.1364C60.7557 89.7677 60.3753 89.0917 60.3753 88.6615C60.3753 86.3262 58.4731 83.6836 56.0868 82.6696C54.4613 81.9936 51.2104 82.055 49.6541 82.7618Z" fill="white"/>
</svg>
