<svg width="100" height="100" viewBox="0 0 100 100" fill="none" xmlns="http://www.w3.org/2000/svg">
<path d="M47.9268 7.66801C46.0462 9.20486 39.6777 13.5368 39.6401 13.6393C39.6025 13.7212 49.0617 27.4299 49.0617 27.4299L54.7125 36.2206C54.7125 36.2206 47.8418 43.0565 33.5683 54.8595C19.2947 66.6625 5.905 77.7484 3.79876 79.4901L0 82.6458L6.21568 91.0679C7.53208 92.9531 8.75445 94.6539 8.9237 94.8793C9.28101 95.2891 8.22789 96.1497 40.9499 69.0396C45.4821 65.2897 49.2244 62.216 49.2808 62.216C49.3184 62.216 49.3561 62.5234 49.3561 62.8717C49.3561 63.8963 49.657 64.8799 50.3904 66.2118C50.8981 67.1135 51.4059 68.7118 52.3838 72.5232C53.1172 75.31 53.6814 77.687 53.6438 77.7895C53.6062 77.8919 51.2178 79.5722 48.3217 81.5394C42.8117 85.2688 42.5296 85.5352 43.2442 86.3958C43.5263 86.7237 43.5075 86.8262 43.0561 87.7278C41.6269 90.6785 43.5263 93.8342 46.5352 93.5268C47.2498 93.4449 47.908 93.117 49.6005 91.9695C50.7853 91.1703 51.876 90.4531 52.0265 90.3916C52.1769 90.3302 52.9668 90.4736 53.7942 90.7195C55.2235 91.1498 55.4867 91.1703 61.2977 91.0269C64.6075 90.9449 67.7481 90.8425 68.2746 90.7605C69.2149 90.658 69.2337 90.658 69.3654 91.2318C69.7227 92.7277 71.2647 93.9776 72.7692 93.9776C74.4053 93.9776 75.6841 92.8506 76.2483 90.9449C76.4739 90.1662 76.6244 89.9818 77.1133 89.8384C77.4518 89.7564 77.7527 89.5515 77.8091 89.4081C77.8656 89.2646 77.245 85.4122 76.4363 80.8632C74.8754 72.0724 74.5746 70.9863 73.4086 69.9208C73.1265 69.6544 70.851 68.0765 68.3687 66.4167C65.8675 64.7365 63.8365 63.3021 63.8365 63.2201C63.8365 63.1381 64.4947 62.4209 65.3033 61.6013L66.7514 60.1464L66.9582 60.7201C67.0711 61.0275 67.4096 61.9906 67.6917 62.8308C68.3122 64.6135 69.0645 65.5561 70.1928 65.925C70.9262 66.1504 71.2083 66.1094 73.559 65.4741L76.1166 64.7569L78.7494 65.5356C80.1975 65.9659 81.4199 66.2733 81.4575 66.2323C81.4951 66.2118 81.3446 65.9454 81.1378 65.6586C80.8933 65.2897 80.3855 65.0233 79.4641 64.7569C78.7306 64.552 78.1665 64.3676 78.2041 64.3061C78.2417 64.2652 78.8999 64.0602 79.6709 63.8348C80.7805 63.5275 76.2737 66.507 76.4241 66.7119C76.5369 66.8553 79.8844 71.6708 79.8844 71.6708L83.213 76.4658C83.213 76.4658 95.0352 67.8921 95.054 67.7282C95.054 67.6667 94.6215 66.9905 94.1137 66.2528L93.1546 64.8799L92.2143 65.5971C90.2962 67.0315 88.8669 67.011 87.5129 65.5151C85.9708 63.8348 86.441 61.3964 88.5848 59.962C89.3559 59.4292 89.3559 59.3472 88.7729 58.589L88.3216 58.0153L87.8702 58.4456C87.3437 58.9579 85.5195 60.1669 85.275 60.1669C85.1622 60.1669 85.087 59.962 85.087 59.6956C85.087 59.3677 85.3879 59.0603 86.2905 58.4866C87.4565 57.7489 88.0959 56.8473 88.0959 55.9866C88.0959 55.2694 87.5317 54.2244 86.9299 53.8146C86.1213 53.2818 85.3503 53.3023 84.3912 53.8965C83.827 54.2449 83.5637 54.3268 83.4133 54.1629C83.1124 53.835 83.1688 53.4457 83.5449 53.3023C83.7141 53.2408 84.015 53.0564 84.2219 52.8924C84.5604 52.6261 84.504 52.5031 83.3004 50.7409C82.6046 49.7368 81.9464 48.8966 81.8524 48.8966C81.7395 48.8966 81.213 49.163 80.6864 49.4909C78.8247 50.6179 76.6244 51.1302 75.985 50.5564C75.5525 50.1466 75.6089 49.5114 76.173 48.8761L76.6432 48.3229L76.0038 47.8926C75.1575 47.3393 73.8787 45.8229 73.5026 44.9213C73.2205 44.2861 73.1077 44.2246 72.1298 44.1016C70.1928 43.8558 68.3687 42.6468 67.5224 41.0279C66.9394 39.9624 66.0932 37.5034 66.0932 36.9092C66.0932 35.9666 67.1275 35.4953 67.8985 36.069C68.237 36.3354 68.4063 36.2944 69.5722 35.7207C70.4937 35.2904 71.2836 35.065 72.1298 35.0035C73.371 34.9215 73.4086 34.901 74.7626 33.5896C76.6808 31.7658 77.6775 31.2331 79.4829 31.1101C81.213 31.0077 82.5106 31.315 83.6765 32.1142C84.1467 32.4421 84.6168 32.7084 84.7109 32.7084C84.9929 32.7084 100.038 20.1677 99.9999 19.9833C99.8683 19.4915 90.9446 7.44249 90.7941 7.54494C90.7001 7.60642 85.3405 12.0326 78.8713 17.3808C72.4021 22.729 67.0049 27.1552 65.9117 27.2167C65.7612 27.2781 67.0147 27.3397 61.0156 18.7333C55.8252 11.254 51.4999 5.08609 51.4435 5.00413C51.3871 4.92216 49.7886 6.11066 47.9268 7.66801ZM69.4218 44.491C70.7006 44.9008 72.0734 45.9459 72.7504 47.0114C73.277 47.8311 73.3334 48.0565 73.4274 50.29L73.5402 52.6875L74.6122 54.2039C75.1952 55.0236 75.6841 55.7612 75.6841 55.8432C75.6841 56.0481 73.0889 57.4005 72.9573 57.2571C72.9008 57.1956 72.2615 55.4129 71.5468 53.3023C70.1928 49.2655 69.7603 48.4868 68.5943 47.954C66.4693 46.95 64.0245 48.7327 64.0245 51.2531C64.0245 51.622 64.5699 53.5482 65.2281 55.5358L66.4317 59.1218L64.5699 61.13L62.6893 63.1381L60.4891 63.5684C59.2855 63.8143 57.6682 64.1217 56.9348 64.2652C55.9381 64.4291 55.562 64.593 55.562 64.8184C55.562 65.1668 55.5431 65.1668 59.9437 64.3266C62.2192 63.8758 62.8022 63.8348 63.2159 64.0397C63.498 64.1832 63.6296 64.3676 63.5356 64.4701C63.3663 64.6545 59.2291 65.6996 58.6837 65.6996C58.5145 65.6996 58.3828 65.843 58.3828 66.0274C58.3828 66.4577 59.4171 66.3348 62.3884 65.5151L64.4947 64.9209L68.3499 67.5028C72.6752 70.4126 73.3522 70.9863 73.8223 72.1543C74.142 72.9535 76.3423 84.9205 76.1919 85.0844C76.0602 85.2483 64.4759 86.3958 63.0654 86.3958C62.8586 86.3958 62.7081 86.5393 62.7081 86.7237C62.7081 87.113 63.5168 87.072 71.4528 86.2934C74.142 86.027 76.3423 85.8221 76.3611 85.8426C76.3799 85.8631 76.4363 86.0885 76.5115 86.3139C76.6244 86.7237 76.5492 86.7647 75.6465 86.8876C72.5247 87.277 60.2446 88.2196 58.0631 88.2401C57.4613 88.2401 57.2545 88.322 57.2545 88.5474C57.2545 88.7933 57.4989 88.8548 58.2888 88.8548C59.9437 88.8548 65.3409 88.4655 71.2459 87.9327C74.2549 87.6458 76.7184 87.4614 76.7372 87.4819C76.8689 87.6868 76.9441 88.8548 76.8313 88.9368C76.2107 89.3671 70.174 89.8179 61.8431 90.0843L55.5996 90.2687L53.8506 89.7564C49.3373 88.445 43.94 86.2114 44.034 85.6991C44.0528 85.6172 46.4224 83.9369 49.2996 81.9902C52.8539 79.5927 54.5464 78.3427 54.5841 78.0763C54.6593 77.4821 51.8572 66.9085 51.4623 66.3143C49.9766 64.1217 49.8074 61.6013 50.9545 58.9989C53.4369 53.5072 61.0908 45.7614 65.3221 44.4705C66.5257 44.1221 68.2934 44.1221 69.4218 44.491ZM68.8388 49.2245C69.3278 49.6138 69.6286 50.3105 70.7946 53.8146C71.5656 56.0891 72.2803 58.0973 72.4119 58.2817C72.6752 58.671 73.1077 58.4661 77.828 55.9252C79.37 55.085 80.7428 54.4498 80.8745 54.5113C81.1754 54.6342 82.2285 57.8514 82.3789 59.1218C82.4542 59.798 82.5858 60.1669 82.7551 60.1669C83.2816 60.1669 82.8679 57.7489 81.9464 55.3719C81.6267 54.5522 81.5515 54.1014 81.6831 53.958C82.2097 53.3842 83.5449 56.1506 84.0715 58.9374C84.6168 61.8062 85.1058 61.4373 78.0912 63.343C74.5746 64.2856 71.6033 64.9619 71.0391 64.9824C69.403 64.9824 69.2337 64.6955 66.9394 57.8718C65.8111 54.4908 64.9648 51.663 64.9648 51.2531C64.9648 50.3515 65.3974 49.4089 65.9427 49.0811C67.0523 48.4458 67.9361 48.4868 68.8388 49.2245Z" fill="white"/>
<path d="M78.1853 32.2786C77.1886 32.6474 76.4552 33.1802 74.8943 34.6761C73.6719 35.8851 73.3334 36.049 72.4871 35.8851C71.8854 35.7826 71.4716 35.8851 70.2305 36.4998C68.726 37.2375 68.2182 37.3195 67.3344 36.9096C67.0147 36.7662 66.9959 36.8072 67.0899 37.34C67.7293 40.844 69.6475 42.8521 72.8068 43.2825C74.4053 43.5079 74.9131 43.2825 76.4364 41.8071C77.4895 40.762 77.8844 40.4956 78.2041 40.5981C79.6897 41.0694 80.8557 40.8235 83.9587 39.3686C85.764 38.5285 86.1401 38.4875 86.7231 39.1022L87.1556 39.553L87.5882 39.1022L88.0019 38.6514L87.5694 37.7498C87.024 36.6228 84.9177 34.1228 83.8834 33.3237C82.8679 32.5655 81.0062 31.8893 79.9718 31.8893C79.5205 31.9098 78.7307 32.0737 78.1853 32.2786Z" fill="white"/>
<path d="M83.4885 40.3514C81.2318 41.3145 80.9121 41.3965 79.4264 41.417L77.8091 41.4375L76.7936 42.421C76.2295 42.9743 75.4208 43.6095 74.9695 43.8145C74.236 44.1628 74.1984 44.2448 74.4053 44.6546C74.8378 45.5562 75.3644 46.2119 76.173 46.8267L76.9817 47.4619L77.5082 46.9291C78.9751 45.4333 80.9121 45.1874 82.7551 46.2324L83.827 46.8677L84.5792 46.089C85.764 44.8185 86.2717 43.5481 86.3658 41.5194C86.4222 40.208 86.3846 39.6957 86.1965 39.5318C85.9896 39.3473 85.3691 39.5522 83.4885 40.3514Z" fill="white"/>
<path d="M78.8999 46.7658C78.0724 47.2167 77.8468 47.483 77.5271 48.2617C77.3202 48.774 77.0193 49.3683 76.8501 49.5937C76.5492 49.9625 76.568 49.9625 77.3766 49.8396C77.8468 49.7576 78.8999 49.3478 79.7273 48.9174C80.5548 48.4871 81.6267 47.9748 82.1345 47.7699C82.6234 47.5855 83.0183 47.3601 83.0183 47.2576C83.0183 46.9913 81.1942 46.2331 80.536 46.2331C80.1787 46.2331 79.4453 46.479 78.8999 46.7658Z" fill="white"/>
<path d="M89.1866 60.5973C87.5881 61.7858 87.1556 63.0767 87.8138 64.4701C88.4532 65.8021 89.9577 66.048 91.4057 65.0644C92.8538 64.0603 93.1923 63.671 93.0606 63.0562C92.7597 61.6833 91.2929 59.7366 90.5783 59.7776C90.409 59.7776 89.7696 60.1465 89.1866 60.5973Z" fill="white"/>
</svg>
