<svg width="40" height="45" viewBox="0 0 40 45" fill="none" xmlns="http://www.w3.org/2000/svg">
<path d="M8.67566 4.15379C8.62301 4.3268 8.57284 4.49167 8.5256 4.64474C8.11918 6.61388 6.5392 8.1824 4.56257 8.58178C3.64751 8.81696 2.5701 9.1033 1.71993 9.4146C1.29008 9.57199 0.944586 9.72651 0.713494 9.87119C0.642218 9.91581 0.5898 9.95463 0.552449 9.98652C0.586023 10.0163 0.632815 10.0526 0.696327 10.0944C0.919233 10.2413 1.25933 10.3997 1.68868 10.5618C2.53711 10.882 3.62543 11.1773 4.56258 11.4182C6.53921 11.8176 8.11918 13.3861 8.5256 15.3553C8.57284 15.5083 8.62301 15.6732 8.67566 15.8462C8.89313 16.5609 9.15283 17.4143 9.42227 18.1479C9.59184 18.6096 9.75662 18.9993 9.9067 19.2665C9.92363 19.2966 9.93974 19.3241 9.95498 19.3489C9.97023 19.3241 9.98634 19.2966 10.0033 19.2665C10.1533 18.9993 10.3181 18.6096 10.4877 18.1479C10.7571 17.4143 11.0168 16.5609 11.2343 15.8462C11.287 15.6732 11.3371 15.5083 11.3844 15.3552C11.79 13.3899 13.3647 11.8237 15.3359 11.4205C15.4897 11.3735 15.6554 11.3236 15.8293 11.2711C16.5471 11.0546 17.4046 10.796 18.1417 10.5277C18.6056 10.3589 18.9973 10.1947 19.266 10.0452C19.2943 10.0294 19.3203 10.0143 19.344 10C19.3203 9.98568 19.2943 9.97061 19.266 9.95482C18.9973 9.80526 18.6056 9.64112 18.1417 9.47227C17.4046 9.20398 16.5471 8.94538 15.8293 8.72888C15.6554 8.67645 15.4897 8.62649 15.3359 8.57945C13.3647 8.17634 11.79 6.61008 11.3844 4.64475C11.3371 4.49168 11.287 4.32679 11.2343 4.15378C11.0168 3.43913 10.7571 2.5857 10.4877 1.85208C10.3181 1.39036 10.1533 1.00067 10.0033 0.733501C9.98634 0.703363 9.97023 0.675943 9.95499 0.651081C9.93974 0.675943 9.92363 0.703363 9.9067 0.733501C9.75662 1.00067 9.59184 1.39036 9.42227 1.85208C9.15283 2.5857 8.89313 3.43913 8.67566 4.15379ZM0.483975 10.0575C0.484002 10.0574 0.484323 10.057 0.484855 10.056L0.483975 10.0575ZM0.487003 9.9163C0.486767 9.91586 0.486633 9.91564 0.486625 9.91564L0.487003 9.9163ZM10.1014 19.5414C10.1014 19.5412 10.0993 19.5394 10.0953 19.5366C10.0994 19.5402 10.1014 19.5416 10.1014 19.5414ZM9.81468 19.5366C9.81064 19.5394 9.8086 19.5412 9.80859 19.5414C9.80858 19.5416 9.8106 19.5402 9.81468 19.5366ZM19.5426 9.85102C19.5424 9.85102 19.5405 9.85311 19.5376 9.85726C19.5414 9.85308 19.5428 9.85101 19.5426 9.85102ZM19.5376 10.1427C19.5405 10.1469 19.5424 10.149 19.5426 10.149C19.5428 10.149 19.5414 10.1469 19.5376 10.1427ZM9.80859 0.458593C9.80861 0.458815 9.81065 0.460629 9.81468 0.463381C9.8106 0.459749 9.80858 0.45837 9.80859 0.458593ZM10.0953 0.463381C10.0993 0.46064 10.1013 0.458832 10.1014 0.458597C10.1014 0.458359 10.0994 0.459732 10.0953 0.463381Z" fill="#EEE6CE" stroke="#D4D4D4"/>
<path d="M25.7244 25.1577C25.6581 25.3756 25.595 25.5829 25.5358 25.7748C25.0396 28.1907 23.1007 30.1166 20.6753 30.6053C19.5314 30.8993 18.1773 31.2589 17.1069 31.6509C16.567 31.8486 16.1255 32.0453 15.8255 32.233C15.6752 32.3272 15.5815 32.4062 15.5299 32.4651C15.5247 32.471 15.5202 32.4764 15.5163 32.4812C15.5187 32.4843 15.5213 32.4877 15.5241 32.4912C15.5695 32.5477 15.6562 32.6266 15.8016 32.7224C16.0919 32.9137 16.5272 33.1155 17.0667 33.3191C18.1353 33.7226 19.5033 34.0934 20.6753 34.3947C23.1007 34.8834 25.0396 36.8093 25.5358 39.2252C25.595 39.4171 25.6581 39.6244 25.7244 39.8423C25.9963 40.7358 26.3223 41.8072 26.6605 42.728C26.8731 43.3068 27.0818 43.8015 27.2744 44.1443C27.3386 44.2587 27.3955 44.346 27.4437 44.4097C27.4919 44.346 27.5488 44.2587 27.6131 44.1443C27.8057 43.8015 28.0144 43.3068 28.227 42.728C28.5651 41.8072 28.8912 40.7358 29.163 39.8423C29.2293 39.6244 29.2924 39.4171 29.3517 39.2252C29.8471 36.8131 31.7807 34.8894 34.2008 34.397C34.3936 34.338 34.6019 34.2752 34.8209 34.2091C35.7184 33.9385 36.7949 33.6138 37.7199 33.2771C38.3014 33.0655 38.7986 32.8576 39.1433 32.6657C39.2558 32.603 39.3423 32.5474 39.406 32.5C39.3423 32.4526 39.2558 32.397 39.1433 32.3343C38.7986 32.1424 38.3014 31.9345 37.7199 31.7229C36.7949 31.3862 35.7184 31.0616 34.8209 30.7909C34.6019 30.7249 34.3936 30.662 34.2008 30.603C31.7807 30.1106 29.8471 28.1869 29.3517 25.7748C29.2924 25.5829 29.2293 25.3756 29.163 25.1577C28.8912 24.2642 28.5651 23.1928 28.227 22.272C28.0144 21.6932 27.8057 21.1985 27.6131 20.8557C27.5488 20.7413 27.4919 20.654 27.4437 20.5903C27.3955 20.654 27.3386 20.7413 27.2744 20.8557C27.0818 21.1985 26.8731 21.6932 26.6605 22.272C26.3223 23.1928 25.9963 24.2642 25.7244 25.1577ZM15.4945 32.5139C15.4945 32.5139 15.4946 32.5136 15.4949 32.513L15.4945 32.5139ZM15.4965 32.4501C15.4961 32.4492 15.4959 32.4487 15.4959 32.4487L15.4965 32.4501ZM27.5509 44.5256C27.5509 44.5255 27.5493 44.5243 27.5463 44.5225C27.5494 44.5249 27.5509 44.5258 27.5509 44.5256ZM27.3412 44.5225C27.3381 44.5243 27.3366 44.5255 27.3366 44.5256C27.3366 44.5258 27.3381 44.5249 27.3412 44.5225ZM39.5266 32.3902C39.5265 32.3902 39.5252 32.3918 39.5234 32.395C39.5259 32.3918 39.5268 32.3902 39.5266 32.3902ZM39.5234 32.605C39.5252 32.6082 39.5265 32.6098 39.5266 32.6098C39.5268 32.6098 39.5259 32.6082 39.5234 32.605ZM27.3366 20.4744C27.3366 20.4745 27.3381 20.4757 27.3412 20.4775C27.3381 20.4751 27.3365 20.4742 27.3366 20.4744ZM27.5463 20.4775C27.5493 20.4757 27.5509 20.4745 27.5509 20.4744C27.5509 20.4742 27.5494 20.4751 27.5463 20.4775Z" fill="#EEE6CE" stroke="#D4D4D4"/>
</svg>
